<svg xmlns="http://www.w3.org/2000/svg" viewBox="-10 -10 351 470" width="351" height="470">
<style type="text/css"><![CDATA[
.branch {
	fill: none;
	stroke-width: 10;
	stroke-linecap: round;
}
.commit {
	fill: #fff;
	stroke-width: 5;
}
.label-tag {
	fill: #333;
}
.label-rect {
	stroke: none;
}
.label-text {
	font-family: Inconsolata, Consolas, monospace;
	font-size: 14px;
	fill: #fff;
	stroke: none;
}
.branch-master {stroke: #002b36; fill: #002b36}
.branch-develop {stroke: #268bd2; fill: #268bd2}
.branch-release-0-9-0 {stroke: #859900; fill: #859900}
]]></style>
<g class="merge">
	<g class="branch-release-0-9-0">
		<path class="branch" d="M50,150 C100,150 100,150 100,200" />
		<path class="branch" d="M0,450 C100,450 100,450 100,400" />
	</g>
	<g class="branch-develop">
		<path class="branch" d="M0,50 C50,50 50,50 50,100" />
	</g>
	<g class="branch-master">
		<path class="branch" d="M0,0 C0,0 0,0 0,50" />
	</g>
</g>
<g class="branch-release-0-9-0">
	<path class="branch" d="M100,200 L100,400" />
	<circle class="commit" cx="100" cy="200" r="7.5" />
	<circle class="commit" cx="100" cy="250" r="7.5" />
	<circle class="commit" cx="100" cy="350" r="7.5" />
	<circle class="commit" cx="100" cy="400" r="7.5" />
	<g class="label-tag" transform="translate(150,250)">
		<rect x="0" y="-14" width="80" height="24" rx="3" class="label-rect" />
		<text x="5" y="2" textLength="70" class="label-text">0.9.0-rc.1</text>
	</g>
	<g class="label-tag" transform="translate(150,400)">
		<rect x="0" y="-14" width="80" height="24" rx="3" class="label-rect" />
		<text x="5" y="2" textLength="70" class="label-text">0.9.0-rc.2</text>
	</g>
	<g class="label-branch" transform="translate(240,400)">
		<rect x="0" y="-14" width="101" height="24" rx="3" class="label-rect" />
		<text x="5" y="2" textLength="91" class="label-text">release/0.9.0</text>
	</g>
</g>
<g class="branch-develop">
	<path class="branch" d="M50,100 L50,300" />
	<circle class="commit" cx="50" cy="100" r="7.5" />
	<circle class="commit" cx="50" cy="150" r="7.5" />
	<circle class="commit" cx="50" cy="300" r="7.5" />
	<g class="label-tag" transform="translate(150,100)">
		<rect x="0" y="-14" width="87" height="24" rx="3" class="label-rect" />
		<text x="5" y="2" textLength="77" class="label-text">0.1.0-dev.1</text>
	</g>
	<g class="label-tag" transform="translate(150,150)">
		<rect x="0" y="-14" width="87" height="24" rx="3" class="label-rect" />
		<text x="5" y="2" textLength="77" class="label-text">0.1.0-dev.2</text>
	</g>
	<g class="label-tag" transform="translate(150,300)">
		<rect x="0" y="-14" width="87" height="24" rx="3" class="label-rect" />
		<text x="5" y="2" textLength="77" class="label-text">0.1.0-dev.3</text>
	</g>
	<g class="label-branch" transform="translate(247,300)">
		<rect x="0" y="-14" width="59" height="24" rx="3" class="label-rect" />
		<text x="5" y="2" textLength="49" class="label-text">develop</text>
	</g>
</g>
<g class="branch-master">
	<path class="branch" d="M0,50 L0,450" />
	<circle class="commit" cx="0" cy="50" r="7.5" />
	<circle class="commit" cx="0" cy="450" r="7.5" />
	<g class="label-tag" transform="translate(150,50)">
		<rect x="0" y="-14" width="45" height="24" rx="3" class="label-rect" />
		<text x="5" y="2" textLength="35" class="label-text">0.0.0</text>
	</g>
	<g class="label-tag" transform="translate(150,450)">
		<rect x="0" y="-14" width="45" height="24" rx="3" class="label-rect" />
		<text x="5" y="2" textLength="35" class="label-text">0.9.0</text>
	</g>
	<g class="label-branch" transform="translate(205,450)">
		<rect x="0" y="-14" width="52" height="24" rx="3" class="label-rect" />
		<text x="5" y="2" textLength="42" class="label-text">master</text>
	</g>
</g>
</svg>
