<svg xmlns="http://www.w3.org/2000/svg" xmlns:xlink="http://www.w3.org/1999/xlink" width="38" height="38" viewBox="0 0 64 64">
	<style type="text/css">
		.a { fill: #db4226; }
	</style>
	<path class="a" d="M30.5,12.1c0-0.1,0-0.2,0.1-0.2c0.3-0.9,1.1-1.4,1.6-2.2c0.5-0.8,0.6-1.8,0.6-2.8 c0-3.8-3.3-6.9-7.4-6.9C21.3,0,18,3.1,18,6.9c0,1.6,0.6,3.1,1.6,4.3c0.5,0.6,1.1,1.1,1.8,1.5c0.7,0.3,1.5,0.5,2,1.1 c1,1.2,1.3,3.3,0.4,4.6c-0.9,1.4-2.8,1.9-4.2,2.9c-1.6,1.1-3.1,2.4-4.3,4c-1.9,2.6-3.4,5.7-3.8,8.9c-0.2,1.8-0.2,3.8,0.2,5.6 c0.4,2.1,2.1,4.6,2.6,7c0.3,1.3,0.2,2.6-0.6,3.7c-1.7,2.2-4.5,1.4-6.8,2.4C5,53.8,3.5,55.7,3.5,58c0,3.3,3,6,6.7,6 c1.2,0,2.6-0.3,3.6-0.9c2-1.1,2.9-3,3.1-5.2c0.1-1.3,0.3-3.1,1.2-4.2c0.4-0.6,1.1-1,1.9-1.1c1.5-0.2,2.8,0.9,4.1,1.4 c0.9,0.4,1.9,0.7,2.9,1c2.1,0.5,4.2,0.8,6.3,0.8c1.3,0,2.6-0.1,3.9-0.3c2.2-0.3,4.4-1,6.4-2c0.9-0.4,1.8-0.8,2.6-1.5 c0.6-0.5,1.3-0.7,2.1-0.7c1.5,0,2.8,1,2.5,2.7c0,0.2-0.1,0.5-0.1,0.7c0,2.5,2.2,4.5,4.8,4.5c2.7,0,4.8-2,4.8-4.5 c0-2-1.5-3.7-3.4-4.3c-1.8-0.5-5,0.3-5.1-2.6c-0.1-1.6,1.1-3,1.8-4.4c1-2.2,1.5-4.6,1.5-7c0-4.1-1.4-8.1-4-11.2 c-2.7-3.3-6.2-5.9-10.3-7.1c-2.1-0.6-4.1-0.9-6.2-1c-1.1,0-2.3-0.2-3.1-0.9C30.7,15.2,30.3,13.4,30.5,12.1z"/>
</svg>